# xmcd
#
# Track frame offsets: 
#        150
#        13757
#        23665
#        42695
#        61960
#        81395
#        87240
#        103137
#        117530
#        131222
#        148840
#
# Disc length: 2204 seconds
#
# Revision: 1
# Processed by: cddbd v1.5.2PL0 Copyright (c) Steve Scherf et al.
# Submitted via: ExactAudioCopy v0.99pb4
#
DISCID=a2089a0b
DTITLE=Walter Horton  - Fine Cuts
DYEAR=1979
DGENRE=Blues
TTITLE0=Everybody's Fishin'
TTITLE1=Don't Get Around Much Any More
TTITLE2=Relaxin'
TTITLE3=We Gonna Move To Kansas City
TTITLE4=Walter's Swing
TTITLE5=Hobo Blues
TTITLE6=Stop Clowniin'
TTITLE7=Need My Baby
TTITLE8=La Cucaracha
TTITLE9=Worried Life
TTITLE10=Put The Kettle On
EXTD=
EXTT0=
EXTT1=
EXTT2=
EXTT3=
EXTT4=
EXTT5=
EXTT6=
EXTT7=
EXTT8=
EXTT9=
EXTT10=
PLAYORDER=
